<svg xmlns="http://www.w3.org/2000/svg" viewBox="0 0 500 500"><path d="M385 325.57c100.17-49.87-44.64-89-66.63-119.14-15.77-21.64 9-72.09-17.85-97.67-28.26-26.88-84.16-23-117.78-4.87-50.8 27.42-86.77 139-30.42 174.47 42.73 26.95 97-20.27 143.18.5 28.98 13.07 34.91 73.86 89.5 46.71z" fill="#00bcd4"/><path d="M385 325.57c100.17-49.87-44.64-89-66.63-119.14-15.77-21.64 9-72.09-17.85-97.67-28.26-26.88-84.16-23-117.78-4.87-50.8 27.42-86.77 139-30.42 174.47 42.73 26.95 97-20.27 143.18.5 28.98 13.07 34.91 73.86 89.5 46.71z" fill="#fff" opacity=".9"/><ellipse cx="250" cy="416.24" rx="193.89" ry="11.32" fill="#f5f5f5"/><path fill="#ffc3bd" d="M321.1 402.69l-7.58-2.08 2.82-18.12 7.58 2.09-2.82 18.11zM377.05 407.73h-7.87l-1.96-18.21h7.87l1.96 18.21z"/><path d="M368.54 406.82h9.58a.69.69 0 01.67.54l1.56 7a1.16 1.16 0 01-1.16 1.4c-3.08-.05-5.33-.24-9.22-.24-2.39 0-9.59.25-12.89.25s-3.74-3.26-2.39-3.56c6.06-1.32 10.63-3.15 12.57-4.89a1.9 1.9 0 011.28-.5zM313.81 399.74l8.28 2.28a.69.69 0 01.5.7l-.36 7.15a1.14 1.14 0 01-1.46 1.05c-3-.88-7.24-2.24-11-3.27-4.39-1.21-8.25-2-13.39-3.44-3.11-.86-3.11-4.24-1.73-4.17 6.29.34 11.17 1.54 17.16-.21a3.65 3.65 0 012-.09z" fill="#263238"/><path opacity=".2" d="M316.34 382.5l-1.46 9.33 7.59 2.09 1.45-9.33-7.58-2.09zM375.09 389.53h-7.87l1.02 9.39h7.86l-1.01-9.39z"/><path d="M283.06 158.56l-.68-7.54-7.38 3.59s1.94 6.69 5.6 6z" fill="#ffc3bd"/><path fill="#ffc3bd" d="M280.72 147.47l-8.32 1.72 2.62 5.42 7.36-3.59-1.66-3.55z"/><path d="M331.49 159.7a73.34 73.34 0 00-11.32 5.66c-.77.38-1.54.76-2.32 1.12-1.9.86-3.83 1.65-5.77 2.33a35.86 35.86 0 01-11.33 2.31c-.42 0-.85 0-1.25-.05h-.42a2.37 2.37 0 01-.31-.06 7.58 7.58 0 01-1.91-.64 21.66 21.66 0 01-4.65-3.25 66.21 66.21 0 01-8.62-9.47l-5.13 2.93a68.35 68.35 0 007.35 12.42 31.65 31.65 0 005.5 5.73 15.54 15.54 0 004.13 2.4 12.72 12.72 0 001.32.4l.71.16.55.09c.71.13 1.42.21 2.12.28a46.37 46.37 0 0015.4-1.68c2.08-.54 4.1-1.17 6.09-1.86 2.14-.45 19.74-4.35 22.75-10.66 3.89-8.17-3.53-11.5-12.89-8.16z" fill="#263238"/><path d="M328.16 176.83a67.56 67.56 0 007.28-2.54l.6-6.44s-4.7 1.92-7.88 8.98z" opacity=".2"/><path d="M378 160.84a1.8 1.8 0 011.29 2.2 180.39 180.39 0 00-4.53 24.13c-.74 6.09-1.19 11.9-1.46 17.18-.66 12.36-.39 21.78-.75 25-6.15-.42-29.32-2-42-2.92-5.71-44.73 5.2-67.77 5.2-67.77a82.06 82.06 0 0110-1.25c.71 0 1.43-.07 2.17-.08a155.11 155.11 0 0117.84 1.24c1.12.13 2.25.3 3.36.48 3.62.55 6.88 1.31 8.88 1.79z" fill="#263238"/><path d="M372.33 169a23.93 23.93 0 002.76 15.39c.5-3.71 1.12-7.5 1.88-11.33z" opacity=".2"/><path d="M365.44 138.33c-1.53 5.67-3 15.78-.08 20.31-3.15 2.82-6.9 2.11-10.11 1.61-3.91-.61-4.43-1.5-3.19-3.33.77-.84.91-1.7 1.64-3.66a12.52 12.52 0 00.14-6.34z" fill="#ffc3bd"/><path d="M351.8 154.5c.51 2.57-2.67 3.94-1.74 5.06s9.22 3.94 12.87 2.61 3.26-1.66 3-4.88 1.8-5.32-.86-4.46c-1.36.44-8.42-.72-10.45-.72s-3.23.33-2.82 2.39z" fill="#263238"/><path d="M360.71 141.84l-6.87 5.07a17.75 17.75 0 01.33 3.21c2.47-.18 6-2.63 6.46-5.17a8.73 8.73 0 00.08-3.11z" opacity=".2"/><path d="M350.25 119.44c-1.75.81-4.58 4.59-2.25 7.09s4.72-8.22 2.25-7.09z" fill="#263238"/><path d="M367.74 130.08c-1.29 7.7-1.66 12.27-6 15.84-6.51 5.36-15.7.8-16.74-7.13-.93-7.13 1.34-18.52 9.25-20.8a10.64 10.64 0 0113.49 12.09z" fill="#ffc3bd"/><path d="M365.44 135.6c-2.88-1.83-3-3.95-2.13-5.85 2.77-6.42 2-9.67-2.92-9.08s-11.93 1.16-11.06-1.09 7.05-3.2 12.3-2.58 10.88 4.7 9.76 11.12c-1.08 6.14-2.39 7.88-5.95 7.48z" fill="#263238"/><path d="M370.5 137.35a7.45 7.45 0 01-4.49 3.46c-2.52.66-3.73-1.6-3-4 .66-2.11 2.77-5 5.28-4.63s3.39 3.07 2.21 5.17z" fill="#ffc3bd"/><path d="M312.53 389.3l12.83 3.53s10.11-50.67 10.74-75.16c.19-7.45 3.41-16.26 5.87-27.32 3.12-13.93 7-29 10.22-40.8 3.38-12.43 5.95-21.22 5.95-21.22l-27.58-1.93s-14.24 65.41-15.95 89.35c-1.79 24.89-2.08 73.55-2.08 73.55z" fill="#00bcd4"/><path d="M312.53 389.3l12.83 3.53s10.11-50.67 10.74-75.16c.19-7.45 3.41-16.26 5.87-27.32 3.12-13.93 7-29 10.22-40.8 3.38-12.43 5.95-21.22 5.95-21.22l-27.58-1.93s-14.24 65.41-15.95 89.35c-1.79 24.89-2.08 73.55-2.08 73.55z" opacity=".4"/><path d="M342 290.35c3.12-13.93 7-29 10.22-40.8l-2.86-6.17c-6.87 8.13-8.71 33.3-7.36 46.97z" opacity=".2"/><path d="M345.44 227.44s2 62.56 5.28 85.36c3.64 25 13.88 84.3 13.88 84.3H379s-.77-56.5-5.28-80.69c-5.14-27.54-1.21-87.08-1.21-87.08z" fill="#00bcd4"/><path d="M345.44 227.44s2 62.56 5.28 85.36c3.64 25 13.88 84.3 13.88 84.3H379s-.77-56.5-5.28-80.69c-5.14-27.54-1.21-87.08-1.21-87.08z" opacity=".4"/><path fill="#263238" d="M362.88 397.41h16.96v-5.07l-18.96-.33 2 5.4zM310.83 389.15l15.3 4.22 1.36-4.94-17.03-4.97.37 5.69zM356.77 130.51c-.06.63-.45 1.11-.86 1.07s-.7-.59-.63-1.22.45-1.11.87-1.07.69.59.62 1.22zM348.86 130.26c-.06.63-.45 1.11-.87 1.06s-.69-.59-.62-1.22.45-1.1.87-1.06.69.59.62 1.22z"/><path d="M356.21 135a5 5 0 114.63-5 4.84 4.84 0 01-4.63 5zm0-9.55a4.54 4.54 0 104.12 4.52 4.33 4.33 0 00-4.12-4.49z" fill="#fff"/><path d="M346 135a5 5 0 114.63-5 4.84 4.84 0 01-4.63 5zm0-9.55a4.54 4.54 0 104.1 4.55 4.33 4.33 0 00-4.1-4.52z" fill="#fff"/><path d="M350.72 130.67a22.82 22.82 0 01-3.11 5.37 3.64 3.64 0 003 .62z" fill="#ed847e"/><path d="M358.65 128.58a.36.36 0 01-.36-.13 3 3 0 00-2.42-1.2.37.37 0 11-.06-.74 3.7 3.7 0 013.06 1.47.38.38 0 01-.06.53.46.46 0 01-.16.07zM352.9 140a5.75 5.75 0 004.72-2.35.2.2 0 00-.34-.22 5.43 5.43 0 01-4.38 2.17.2.2 0 100 .4zM344.5 128.61a.46.46 0 01-.23-.06.38.38 0 01-.12-.51 3.7 3.7 0 012.89-1.81.38.38 0 01.38.37.39.39 0 01-.37.38 2.91 2.91 0 00-2.26 1.45.39.39 0 01-.29.18z" fill="#263238"/><path d="M365.94 408.2a2.4 2.4 0 01-1.52-.4 1.12 1.12 0 01-.38-1 .57.57 0 01.31-.52c.88-.45 3.41 1.11 3.7 1.29a.18.18 0 01.08.18.18.18 0 01-.14.16 9.31 9.31 0 01-2.05.29zm-1.17-1.63a.43.43 0 00-.24.05c-.06 0-.11.07-.12.22a.75.75 0 00.25.67 3.79 3.79 0 002.79.14 7.59 7.59 0 00-2.68-1.08z" fill="#00bcd4"/><path d="M368 407.92h-.09c-.81-.44-2.39-2.17-2.22-3a.61.61 0 01.59-.49 1 1 0 01.8.24c.91.74 1.1 3 1.1 3.11a.17.17 0 01-.08.17.19.19 0 01-.1-.03zm-1.59-3.19h-.08c-.24 0-.27.14-.27.19-.1.51.9 1.82 1.71 2.43a4.41 4.41 0 00-.93-2.46.67.67 0 00-.48-.16zM312.79 400.58c-1.29-.09-3.54-.39-4.17-1.36a1 1 0 01-.09-1 .58.58 0 01.42-.4c1.06-.24 3.69 2.13 4 2.4a.18.18 0 01-.1.32zm-3.74-2.36H309a.22.22 0 00-.16.17.67.67 0 00.05.63c.36.54 1.58 1 3.33 1.14-1.05-.91-2.55-2.01-3.17-1.94z" fill="#00bcd4"/><path d="M312.79 400.58a.18.18 0 01-.14 0c-.8-.66-2.17-2.8-1.79-3.62.09-.19.3-.4.81-.32a1.39 1.39 0 01.91.59c.74 1.05.38 3.15.37 3.24a.17.17 0 01-.12.14zm-1.4-3.62c-.15 0-.18.09-.19.12-.23.49.65 2.11 1.43 2.93a4.34 4.34 0 00-.36-2.61 1 1 0 00-.67-.43.8.8 0 00-.21.03z" fill="#00bcd4"/><path d="M375.79 223.12l-8 .8 4.77 7.57s6.48-2.55 5.51-6.13z" fill="#ffc3bd"/><path fill="#ffc3bd" d="M362.53 227.9l4.92 6.7 5.15-3.11-4.77-7.57-5.3 3.98z"/><path d="M394.5 188.76c-.72-2-1.54-4-2.41-5.89-.65-2.09-6.15-19.25-12.72-21.67-8.47-3.12-11.1 4.58-6.91 13.59a72.8 72.8 0 006.68 10.75c.45.73.9 1.46 1.32 2.2 1 1.82 2 3.67 2.86 5.54a35.84 35.84 0 013.35 11.06c0 .43.06.85.06 1.26v.29a.57.57 0 000 .13 1.89 1.89 0 010 .31 7.45 7.45 0 01-.46 2 21.91 21.91 0 01-2.8 4.93 65.69 65.69 0 01-8.65 9.46l3.4 4.84a68.24 68.24 0 0011.69-8.47 32 32 0 005.21-6 15.56 15.56 0 002-4.34 11.11 11.11 0 00.28-1.35l.09-.72v-.56c.06-.72.07-1.43.08-2.13a46.43 46.43 0 00-3.07-15.23z" fill="#263238"/><g><path d="M86.07 251.57h166.09a8.38 8.38 0 008.29-8l3.72-105.92a7.7 7.7 0 00-7.72-8H90.35a8.37 8.37 0 00-8.29 8l-3.72 105.91a7.71 7.71 0 007.73 8.01z" fill="#00bcd4"/><path d="M86.07 251.57h166.09a8.38 8.38 0 008.29-8l3.72-105.92a7.7 7.7 0 00-7.72-8H90.35a8.37 8.37 0 00-8.29 8l-3.72 105.91a7.71 7.71 0 007.73 8.01z" opacity=".4"/><path d="M87.65 251.57h166.1a8.39 8.39 0 008.29-8l3.72-105.92a7.7 7.7 0 00-7.73-8H91.93a8.37 8.37 0 00-8.28 8l-3.72 105.91a7.7 7.7 0 007.72 8.01z" fill="#00bcd4"/><path d="M252.16 244.9a3.31 3.31 0 003.27-3.16L259 139.46a3 3 0 00-3-3.16H93.52a3.32 3.32 0 00-3.27 3.16l-3.59 102.28a3 3 0 003 3.16z" fill="#fff" opacity=".9"/><path d="M203.14 217.22a40.67 40.67 0 008.76-23.14 37.37 37.37 0 00-6.48-23.08v-.12a2.91 2.91 0 00-.26-.33A36.92 36.92 0 00174.77 155a41.22 41.22 0 00-31.93 15.54c-.08.09-.16.17-.23.26a.93.93 0 01-.05.1 40.66 40.66 0 00-8.77 23.15 37.33 37.33 0 006.49 23.16.36.36 0 000 .09l.09.11a36.92 36.92 0 0030.51 15.7 41.22 41.22 0 0031.89-15.5 3.88 3.88 0 00.26-.31 1.05 1.05 0 00.11-.08zm-32 11.27c-5.59 0-10.3-6.53-12.69-16.16A68.2 68.2 0 01172 211a66.37 66.37 0 0113.42 1.34c-3.34 9.66-8.69 16.15-14.27 16.15zm1.09-22.15a73.21 73.21 0 00-14.7 1.46 65 65 0 01-.78-11.39h31.95a68.88 68.88 0 01-1.9 11.39 71.3 71.3 0 00-14.56-1.46zm-33.83-9.93h13.7a69.53 69.53 0 00.84 12.51 47 47 0 00-9.81 4 32.68 32.68 0 01-4.72-16.51zm6.6-21.16a42.18 42.18 0 009.42 4 72.54 72.54 0 00-2.07 12.52h-13.7a35.8 35.8 0 016.35-16.52zm29.55-15.57c5.59 0 10.29 6.53 12.69 16.16a69.14 69.14 0 01-13.56 1.33 67.19 67.19 0 01-13.42-1.33c3.34-9.63 8.74-16.16 14.28-16.16zm-1.09 22.14a73.35 73.35 0 0014.7-1.46 66 66 0 01.78 11.4H157a67.79 67.79 0 011.9-11.4 71.15 71.15 0 0014.55 1.46zm33.83 9.94h-13.7a70.51 70.51 0 00-.84-12.52 47.41 47.41 0 009.81-4 32.78 32.78 0 014.72 16.52zm-13.93 4.65h13.7a35.88 35.88 0 01-6.36 16.5 42.44 42.44 0 00-9.42-4 71.62 71.62 0 002.07-12.5zm6.55-24.89a42.62 42.62 0 01-8.09 3.19 37.09 37.09 0 00-5.66-13 32.29 32.29 0 0113.74 9.81zm-37.18-9.79a42 42 0 00-6.94 13 39.24 39.24 0 01-7.77-3.19 37 37 0 0114.7-9.81zm-16.93 54.92a43.47 43.47 0 018.08-3.2 37.19 37.19 0 005.66 13 32.3 32.3 0 01-13.75-9.8zm37.2 9.78a41.63 41.63 0 006.94-13 39 39 0 017.77 3.2 36.91 36.91 0 01-14.71 9.8z" fill="#00bcd4" opacity=".3"/><path fill="#fff" opacity=".6" d="M123.47 136.3l-14.44 108.6h19.22l14.44-108.6h-19.22zM149.25 136.3l-14.44 108.6h7.88l14.45-108.6h-7.89z"/><path d="M173.63 133.15a1.18 1.18 0 001.19 1.23 1.28 1.28 0 001.27-1.23 1.18 1.18 0 00-1.19-1.23 1.28 1.28 0 00-1.27 1.23z" fill="#fff" opacity=".3"/><path d="M278.11 362.12H112a10.69 10.69 0 01-9.84-8l-21.26-92.9c-1-4.4 1.77-8 6.17-8h166.1a10.7 10.7 0 019.84 8l21.26 92.9c1.02 4.4-1.76 8-6.16 8z" fill="#00bcd4"/><path d="M278.11 362.12H112a10.69 10.69 0 01-9.84-8l-21.26-92.9c-1-4.4 1.77-8 6.17-8h166.1a10.7 10.7 0 019.84 8l21.26 92.9c1.02 4.4-1.76 8-6.16 8z" opacity=".4"/><path d="M279.7 362.12H113.6a10.68 10.68 0 01-9.84-8L82.5 261.21c-1-4.4 1.77-8 6.17-8h166.1a10.7 10.7 0 019.84 8l21.26 92.9c1.01 4.41-1.77 8.01-6.17 8.01z" fill="#00bcd4"/><path d="M104.81 315.75a4.21 4.21 0 01-3.88-3.16L89.59 263a2.44 2.44 0 012.41-3.12h162.47a4.2 4.2 0 013.88 3.16l11.35 49.55a2.45 2.45 0 01-2.44 3.16zM171.75 354.73a2.47 2.47 0 01-2.27-1.84L162.87 324a1.43 1.43 0 011.42-1.84h46.42A2.46 2.46 0 01213 324l6.62 28.89a1.43 1.43 0 01-1.42 1.84z" opacity=".2"/></g><g><path d="M284.23 289.9l5-131.77a6.14 6.14 0 00-6.1-6.4l-84-.71a6.61 6.61 0 00-6.6 6.3l-5 131.76a6.14 6.14 0 006.1 6.41l84 .71a6.62 6.62 0 006.6-6.3z" fill="#00bcd4"/><path d="M284.23 289.9l5-131.77a6.14 6.14 0 00-6.1-6.4l-84-.71a6.61 6.61 0 00-6.6 6.3l-5 131.76a6.14 6.14 0 006.1 6.41l84 .71a6.62 6.62 0 006.6-6.3z" opacity=".4"/><path d="M286.08 289.9l5.05-131.77a6.15 6.15 0 00-6.11-6.4L201 151a6.61 6.61 0 00-6.6 6.3l-5 131.76a6.14 6.14 0 006.1 6.41l84 .71a6.61 6.61 0 006.58-6.28z" fill="#00bcd4"/><path d="M285.78 159.53a2.42 2.42 0 00-2.41-2.52l-81.11-.69a2.61 2.61 0 00-2.6 2.49l-4.94 128.87a2.43 2.43 0 002.41 2.53l81.11.68a2.6 2.6 0 002.6-2.48z" fill="#fff" opacity=".9"/><path d="M270.41 246.25a37.82 37.82 0 008.13-21.49 34.72 34.72 0 00-6-21.48v-.1a1.54 1.54 0 00-.25-.31 34.25 34.25 0 00-28.16-14.37 38.3 38.3 0 00-29.65 14.43 2.52 2.52 0 00-.21.25l-.05.09a37.62 37.62 0 00-8.22 21.49 34.62 34.62 0 006 21.5.36.36 0 010 .09l.09.1a34.26 34.26 0 0028.4 14.55 38.25 38.25 0 0029.61-14.39 3.33 3.33 0 00.25-.28zm-29.71 10.46c-5.18 0-9.55-6.07-11.78-15a64 64 0 0112.58-1.24 62.33 62.33 0 0112.5 1.23c-3.14 8.94-8.11 15.01-13.3 15.01zm1-20.56a68.09 68.09 0 00-13.65 1.35 60.71 60.71 0 01-.73-10.58H257a63.63 63.63 0 01-1.77 10.58 66.11 66.11 0 00-13.51-1.35zm-31.41-9.23H223a63.52 63.52 0 00.78 11.62 43.78 43.78 0 00-9.11 3.7 30.42 30.42 0 01-4.36-15.32zm6.11-19.64a39 39 0 008.75 3.7 66.73 66.73 0 00-1.93 11.63h-12.7a33.18 33.18 0 015.9-15.33zm27.43-14.46c5.19 0 9.56 6.06 11.79 15a63.4 63.4 0 01-12.59 1.24 61.43 61.43 0 01-12.46-1.24c3.13-8.94 8.09-15 13.28-15zm-1 20.56a67.5 67.5 0 0013.66-1.38 60.93 60.93 0 01.72 10.59h-29.65a62.91 62.91 0 011.76-10.59 65.57 65.57 0 0013.52 1.38zm31.41 9.23h-12.71a65.46 65.46 0 00-.78-11.63 43.24 43.24 0 009.11-3.7 30.46 30.46 0 014.39 15.33zm-12.93 4.31H274a33.36 33.36 0 01-5.9 15.32 39.71 39.71 0 00-8.75-3.7 67.57 67.57 0 001.97-11.62zm6.08-23.11a39.85 39.85 0 01-7.51 3 34.44 34.44 0 00-5.25-12.05 30 30 0 0112.77 9.05zm-34.52-9.08a38.6 38.6 0 00-6.44 12.05 35.57 35.57 0 01-7.21-3 34.29 34.29 0 0113.66-9.05zm-15.72 51a39.74 39.74 0 017.5-3 34.63 34.63 0 005.26 12.05 29.94 29.94 0 01-12.75-9.06zm34.52 9.08a38.93 38.93 0 006.44-12.05 36.39 36.39 0 017.21 3 34.2 34.2 0 01-13.64 9.04z" fill="#00bcd4" opacity=".3"/><path fill="#fff" opacity=".6" d="M219.79 156.47l-14.41 133.81 19.2.16 14.41-133.81-19.2-.16zM245.54 156.69L231.13 290.5l7.88.06 14.41-133.81-7.88-.06z"/><path d="M241.12 154.74a1 1 0 001-1 .94.94 0 00-.94-1 1 1 0 00-1 1 .94.94 0 00.94 1z" fill="#fff" opacity=".3"/></g><g><path d="M309.55 325.22l5.05-103.42a6.15 6.15 0 00-6.1-6.41l-48.57-.7a6.61 6.61 0 00-6.6 6.29l-5 103.43a6.14 6.14 0 006.1 6.4l48.57.71a6.61 6.61 0 006.55-6.3z" fill="#00bcd4"/><path d="M309.55 325.22l5.05-103.42a6.15 6.15 0 00-6.1-6.41l-48.57-.7a6.61 6.61 0 00-6.6 6.29l-5 103.43a6.14 6.14 0 006.1 6.4l48.57.71a6.61 6.61 0 006.55-6.3z" opacity=".4"/><path d="M311.41 325.22l5-103.42a6.14 6.14 0 00-6.1-6.41l-48.57-.7a6.6 6.6 0 00-6.59 6.29l-5.05 103.43a6.14 6.14 0 006.1 6.4l48.57.71a6.62 6.62 0 006.64-6.3z" fill="#00bcd4"/><path d="M311.11 223.2a2.44 2.44 0 00-2.41-2.53L263 220a2.61 2.61 0 00-2.6 2.49L255.48 323a2.43 2.43 0 002.41 2.53l45.68.68a2.6 2.6 0 002.6-2.48z" fill="#fff" opacity=".9"/><path d="M300.56 287a23.21 23.21 0 005-13.19 21.34 21.34 0 00-3.69-13.19v-.06a1.33 1.33 0 00-.14-.19 21.06 21.06 0 00-17.3-8.82 23.47 23.47 0 00-18.19 8.86l-.14.15v.06a23.13 23.13 0 00-5 13.19 21.22 21.22 0 003.69 13.2v.05l.05.06A21 21 0 00282.2 296a23.48 23.48 0 0018.17-8.83 1.37 1.37 0 00.16-.18zm-18.23 6.42c-3.19 0-5.87-3.72-7.23-9.21a39.32 39.32 0 017.72-.76 38.23 38.23 0 017.65.76c-1.91 5.44-4.96 9.16-8.14 9.16zm.62-12.62a41.85 41.85 0 00-8.38.83 37.48 37.48 0 01-.44-6.49h18.2a38.22 38.22 0 01-1.08 6.49 40.69 40.69 0 00-8.25-.88zm-19.28-5.66h7.81a39.64 39.64 0 00.48 7.13 26.84 26.84 0 00-5.6 2.27 18.7 18.7 0 01-2.69-9.45zm3.75-12.14a24.37 24.37 0 005.37 2.27 40.93 40.93 0 00-1.18 7.14h-7.81a20.41 20.41 0 013.62-9.41zm16.84-8.88c3.19 0 5.87 3.72 7.24 9.21a38.75 38.75 0 01-7.73.76 37.52 37.52 0 01-7.65-.76c1.88-5.46 4.96-9.18 8.14-9.18zm-.62 12.62a41.85 41.85 0 008.38-.83 37.53 37.53 0 01.44 6.5h-18.2a39.18 39.18 0 011.08-6.5 40.69 40.69 0 008.3.86zm19.28 5.67h-7.81a39.76 39.76 0 00-.48-7.14 26.84 26.84 0 005.6-2.27 18.71 18.71 0 012.69 9.44zm-7.92 2.68h7.81a20.41 20.41 0 01-3.62 9.4 24.37 24.37 0 00-5.37-2.27 41 41 0 001.18-7.13zm3.74-14.19a24.47 24.47 0 01-4.61 1.82 21.14 21.14 0 00-3.23-7.4 18.41 18.41 0 017.82 5.58zm-21.19-5.58a23.82 23.82 0 00-4 7.4 21.91 21.91 0 01-4.43-1.82 21.06 21.06 0 018.41-5.58zm-9.65 31.3a24.78 24.78 0 014.6-1.82 21.33 21.33 0 003.23 7.4 18.32 18.32 0 01-7.85-5.58zm21.18 5.58a23.82 23.82 0 004-7.4 22.5 22.5 0 014.43 1.82 21.06 21.06 0 01-8.45 5.58z" fill="#00bcd4" opacity=".3"/><path fill="#fff" opacity=".6" d="M271.46 220.12L260.2 325.56l15.06.23 11.36-105.45-15.16-.22zM291.79 220.42l-11.36 105.45 6.22.09 11.36-105.45-6.22-.09z"/><path d="M266.37 218.56a1 1 0 001-1 1 1 0 00-.94-1 1 1 0 00-1 1 1 1 0 00.94 1z" fill="#fff" opacity=".3"/></g></svg>