<svg xmlns="http://www.w3.org/2000/svg" viewBox="0 0 122.88 122.87" xmlns:v="https://vecta.io/nano"><path d="M120.56 55.96L66.91 2.32c-3.09-3.09-8.1-3.09-11.19 0L44.58 13.46l14.13 14.13c3.29-1.11 7.05-.37 9.67 2.25 2.63 2.63 3.37 6.43 2.23 9.73l13.62 13.62c3.3-1.14 7.1-.4 9.73 2.23 3.68 3.68 3.68 9.64 0 13.31a9.42 9.42 0 0 1-13.32 0c-2.77-2.77-3.45-6.83-2.05-10.24l-12.7-12.7v33.43c.9.44 1.74 1.04 2.49 1.78a9.42 9.42 0 0 1 0 13.32c-3.68 3.68-9.64 3.68-13.31 0a9.42 9.42 0 0 1 0-13.32c.91-.91 1.96-1.59 3.08-2.05V45.21c-1.12-.46-2.17-1.14-3.08-2.05-2.79-2.78-3.46-6.87-2.03-10.29L39.1 18.93 2.32 55.72c-3.09 3.09-3.09 8.1 0 11.19l53.65 53.65c3.09 3.09 8.1 3.09 11.19 0l53.4-53.39a7.94 7.94 0 0 0 0-11.21h0 0zm0 0h0 0 0z" fill="#f05133"/></svg>