<svg xmlns="http://www.w3.org/2000/svg" viewBox="0 0 309.87 252.79" fill="#003545" xmlns:v="https://vecta.io/nano"><path d="M56.16 208.51l11.26 43.55h-8.5l-7.5-31.37-14.14 31.37H30.1L16 220.87l-7.68 31.19H0l11.16-43.55h7.36l15.2 33.72 15.14-33.72zm43.37 16.83v-5.07h8.21v31.79h-8.21v-5.12c-2.17 3.68-6.63 5.79-12.06 5.79-11.35 0-17.68-8-17.68-17.2 0-8.87 6-16 16.47-16 5.97.07 10.92 2.07 13.27 5.81zm-21 10.66c0 5.85 3.68 10.86 10.8 10.86 6.87 0 10.61-4.89 10.61-10.68s-3.86-10.74-11-10.74c-6.84 0-10.4 4.94-10.4 10.56zm47.72 16.06h-8.2v-31.79h8.2v7.12a12.6 12.6 0 0 1 11.46-7.79 14.92 14.92 0 0 1 5.13.84l-1.75 6a18.68 18.68 0 0 0-4.34-.6c-5.92 0-10.5 4.46-10.5 11zm20.69-40.18a4.17 4.17 0 0 1 4.06-4.28h.35a4.34 4.34 0 0 1 4.47 4.19v.21a4.16 4.16 0 0 1-4.07 4.24h-.4a4.22 4.22 0 0 1-4.4-4zm.36 8.39h8.21v23.23c0 1.44.3 2.47 1.5 2.47a8.3 8.3 0 0 0 1.57-.18l1.27 6a14 14 0 0 1-5.43 1c-3.44 0-7.12-1-7.12-8.81zm44.88 5.07v-5.07h8.24v31.79h-8.21v-5.12c-2.17 3.68-6.63 5.79-12.06 5.79-11.34 0-17.68-8-17.68-17.2 0-8.87 6-16 16.47-16 5.94.07 10.89 2.07 13.24 5.81zm-21 10.62c0 5.85 3.68 10.86 10.8 10.86 6.88 0 10.62-4.89 10.62-10.68s-3.87-10.74-11-10.74c-6.85 0-10.41 4.94-10.41 10.56zM213 208.51h19.67c16.53 0 24.79 9.11 24.67 21.77.12 13.16-9 21.78-23.22 21.78H213zm5.43 3.86v35.89h15c13.15 0 18.16-8.87 18.16-18.1 0-10.43-6.27-17.79-18.16-17.79zm72.44 39.69h-25v-43.55h22.55c8.62 0 16.83 1.62 16.71 11.28 0 6.81-4.23 8.69-8.69 9.41 6.33.54 10.14 4.58 10.14 11.1.04 9.77-8.53 11.76-15.71 11.76zM289 227.51c8.63 0 10.56-3.32 10.56-7.54 0-6.34-3.86-7.78-10.56-7.78h-17.92v15.32zm.24 3.68h-18.16v17.19H290c5.31 0 10.92-1.75 10.92-8.44 0-7.72-6.45-8.75-11.7-8.75zM308.5 1a4.25 4.25 0 0 0-2.84-1c-2.83 0-6.49 1.92-8.46 3l-.78.4A26.74 26.74 0 0 1 285.85 6c-3.76.12-7 .34-11.22.78-25 2.57-36.15 21.73-46.89 40.26-5.85 10.08-11.89 20.55-20.17 28.55a52.27 52.27 0 0 1-5.45 4.63c-8.57 6.37-19.33 10.92-27.7 14.14-8.06 3.08-16.86 5.85-25.36 8.53-7.79 2.45-15.14 4.77-21.9 7.28-3 1.13-5.64 2-7.93 2.76-6.16 2-10.6 3.53-17.09 8-2.53 1.73-5.07 3.6-6.79 5a71.9 71.9 0 0 0-13.55 14.28 84.12 84.12 0 0 1-11.38 13.66c-1.37 1.34-3.8 2-7.44 2-4.26 0-9.43-.88-14.9-1.81a100 100 0 0 0-16.47-1.95c-4.06 0-7.17.66-9.49 2 0 0-3.91 2.28-5.56 5.23l1.62.73a33.79 33.79 0 0 1 6.92 5 34.37 34.37 0 0 0 7.2 5.12 6.32 6.32 0 0 1 2.22 1.41c-.68 1-1.68 2.29-2.73 3.67-5.77 7.55-9.14 12.32-7.21 14.92a6 6 0 0 0 3 .68c12.58 0 19.34-3.27 27.89-7.41 2.48-1.2 5-2.43 8-3.7 5-2.17 10.38-5.63 16.09-9.29 7.47-4.87 15.28-9.87 22.86-12.28a62.32 62.32 0 0 1 19.23-2.7c8 0 16.42 1.07 24.54 2.11 6.05.78 12.32 1.58 18.47 2a114.7 114.7 0 0 0 6.75.21 77.35 77.35 0 0 0 8.61-.45l.69-.24c4.31-2.65 6.33-8.34 8.29-13.84 1.26-3.54 2.32-6.72 4-8.74l.32-.27a.41.41 0 0 1 .49.08v.16c-1 21.51-9.66 35.17-18.42 47.31l-5.85 6.18s8.19 0 12.85-1.8c17-5.08 29.83-16.28 39.17-34.14a145.85 145.85 0 0 0 6.17-14.06c.16-.4 1.63-1.14 1.49.93l-.14 2h0a6.94 6.94 0 0 1-.08 1.28c-.24 3-.95 9.34-.95 9.34l5.25-2.81c12.66-8 22.42-24.14 29.82-49.25 3.08-10.46 5.34-20.85 7.33-30 2.38-11 4.43-20.43 6.78-24.09 3.69-5.74 9.32-9.62 14.77-13.39.74-.51 1.49-1 2.22-1.54 6.85-4.81 13.66-10.36 15.16-20.71v-.23c1.09-7.71.17-9.68-.88-10.53z"/></svg>