<svg xmlns="http://www.w3.org/2000/svg" viewBox="0 0 122.88 122.88" fill-rule="evenodd" xmlns:v="https://vecta.io/nano"><path d="M0 61.44V0h122.88v122.88H0V61.44h0zm0 0h0 0 0z" fill="#007acc"/><path d="M26.94 61.65v5.01h15.97v45.47h11.34V66.66h15.97v-4.92l-.12-5.07c0-.09-9.74-.12-21.57-.12l-21.5.09v5.04l-.09-.03h0 0zm71.79-5.13c3.13.74 5.53 2.15 7.68 4.39 1.14 1.23 2.83 3.38 2.95 3.93 0 .18-5.31 3.78-8.54 5.78-.12.09-.61-.43-1.11-1.23-1.6-2.27-3.23-3.26-5.78-3.44-3.69-.25-6.14 1.69-6.14 4.91 0 .98.18 1.54.55 2.33.83 1.69 2.37 2.7 7.13 4.79 8.79 3.78 12.6 6.27 14.9 9.83 2.61 3.99 3.19 10.26 1.44 14.96-1.97 5.13-6.76 8.6-13.61 9.74-2.15.37-7.07.31-9.37-.09-4.91-.92-9.62-3.38-12.5-6.54-1.14-1.23-3.32-4.52-3.19-4.73l1.17-.74 4.61-2.67 3.47-2.03.8 1.08c1.01 1.6 3.29 3.75 4.61 4.49 3.99 2.06 9.34 1.78 11.98-.61 1.14-1.04 1.63-2.15 1.63-3.69 0-1.41-.22-2.06-.92-3.13-.98-1.35-2.95-2.46-8.48-4.91-6.36-2.7-9.06-4.42-11.58-7.07-1.44-1.6-2.76-4.09-3.38-6.14-.46-1.78-.61-6.14-.18-7.9 1.32-6.14 5.96-10.44 12.6-11.67 2.15-.43 7.22-.25 9.34.31l-.08.05h0 0z" fill="#fff"/></svg>