<svg xmlns="http://www.w3.org/2000/svg" width="1052.362" height="744.094">
    <path
        d="M965.121 746.106c-128.3 0-260.772-.015-389.071-.015-.015-.62-.038-267.99-.033-271.216 16.638 11.84 374.677 261.131 389.104 271.231z"
        fill="navy" />
    <path
        d="M1052.356 2.023c.062 28.112.044 7.192.033 31.078-150.133 105.762-297.64 210.84-447.15 315.912 149.251.258 297.898-.23 447.15.028 0 16.325.01 33.666.01 49.99-148.61.26-297.64-.244-446.25.015l446.246 306.405v40.636c-14.068 0-29.53.018-43.599.018-155.823-110.27-300.483-215.235-457.612-323.488-1.108 113.768 0 200.91 0 323.481-16.327 0-33.793-.01-50.12-.01-.26-107.737.218-215.715-.041-323.452L43.33 745.99l-43.169.044C125.547 656.73 794.027 185.357 1052.356 2.023z"
        fill="red" />
    <path
        d="M86.479 746.06c2.949-2.094 385.644-272.231 389.578-275.005.23 95.433.017 172.218.017 275.038-159.595.433-259.835-.13-389.595-.033zM684.207 424.032c205.162.05 198.282-.365 368.185.016.522 83.46.305 151.003.01 240.823-120.59-78.874-247.608-161.965-368.195-240.84zM1052.398 64.042c0 85.824-.01 174.154-.01 259.978-121.586 0-246.594.008-368.18.008 369.874-259.68 1.104-1.058 368.187-259.986zM-.074 2.004h532.26v367.722H-.074z"
        fill="navy" />
    <path
        d="M532.093 2.01c172.23-.1 347.61-.037 520.258-.037-20.848 14.792-53.803 38.034-74.651 52.827-151.802-.509-293.81-.868-445.609.004-.008-15.37.004-37.427-.01-52.803zM532 107.422c172.232-.1 198.538-.007 371.271-.034-20.848 14.792-53.817 38.002-74.665 52.794-151.802-.508-144.676-1.026-296.474-.155-.123-1.859.02-45.996-.131-52.605zM606.287 317.416c-4.575 3.339-64.543 45.67-74.026 52.315.062-5.67.02-48.4 0-52.335 24.582-.077 49.37.295 74.026.02zM532.178 211.129c172.232-.1 52.112-.19 224.844-.217-20.847 14.792-55.125 38.788-75.973 53.58-5.715.356-148.87.336-148.87.336.31-6.18.15-47.09 0-53.7zM0 430.673c6.648-.004 273.716-.19 446.363-.19-20.848 14.792-53.803 38.034-74.65 52.826-151.803-.508-367.493-.002-371.705-.002.013-2.33-.01-47.29-.009-52.633zM.022 535.59c6.694.332 245.727.015 297.873-.012-20.848 14.793-53.817 38.003-74.665 52.795-4.85-.074-217.818.014-223.202-.001-.018-5.317.146-46.173-.006-52.782zM.18 639.892c172.23-.1 145.818-.19 150.245-.216-3.573 2.751-55.126 38.787-75.974 53.58-5.714.355-74.443.242-74.443.242.31-6.181.323-46.997.172-53.606z"
        fill="red" />
    <path
        d="M42.882 52.796l-15.815-11.61-15.16 11.36 6.156-18.628L2.574 23.011l19.619.097 5.586-18.1 5.97 18.688 18.942-.28-15.929 11.452zM42.882 360.796l-15.815-11.61-15.16 11.36 6.156-18.628-15.489-10.907 19.619.097 5.586-18.1 5.97 18.688 18.942-.28-15.929 11.452zM42.882 198.796l-15.815-11.61-15.16 11.36 6.156-18.628-15.489-10.907 19.619.097 5.586-18.1 5.97 18.688 18.942-.28-15.929 11.452zM42.882 124.796l-15.815-11.61-15.16 11.36 6.156-18.628L2.574 95.011l19.619.097 5.586-18.1 5.97 18.688 18.942-.28-15.929 11.452zM42.882 276.796l-15.815-11.61-15.16 11.36 6.156-18.628-15.489-10.907 19.619.097 5.586-18.1 5.97 18.688 18.942-.28-15.929 11.452zM518.882 52.796l-15.815-11.61-15.16 11.36 6.156-18.628-15.489-10.907 19.619.097 5.587-18.1 5.97 18.688 18.941-.28-15.929 11.452zM518.882 360.796l-15.815-11.61-15.16 11.36 6.156-18.628-15.489-10.907 19.619.097 5.587-18.1 5.97 18.688 18.941-.28-15.929 11.452zM518.882 198.796l-15.815-11.61-15.16 11.36 6.156-18.628-15.489-10.907 19.619.097 5.587-18.1 5.97 18.688 18.941-.28-15.929 11.452zM518.882 124.796l-15.815-11.61-15.16 11.36 6.156-18.628-15.489-10.907 19.619.097 5.587-18.1 5.97 18.688 18.941-.28-15.929 11.452zM518.882 276.796l-15.815-11.61-15.16 11.36 6.156-18.628-15.489-10.907 19.619.097 5.587-18.1 5.97 18.688 18.941-.28-15.929 11.452zM232.882 52.796l-15.815-11.61-15.16 11.36 6.156-18.628-15.489-10.907 19.619.097 5.586-18.1 5.97 18.688 18.942-.28-15.929 11.452zM232.882 360.796l-15.815-11.61-15.16 11.36 6.156-18.628-15.489-10.907 19.619.097 5.586-18.1 5.97 18.688 18.942-.28-15.929 11.452zM232.882 198.796l-15.815-11.61-15.16 11.36 6.156-18.628-15.489-10.907 19.619.097 5.586-18.1 5.97 18.688 18.942-.28-15.929 11.452zM232.882 124.796l-15.815-11.61-15.16 11.36 6.156-18.628-15.489-10.907 19.619.097 5.586-18.1 5.97 18.688 18.942-.28-15.929 11.452zM232.882 276.796l-15.815-11.61-15.16 11.36 6.156-18.628-15.489-10.907 19.619.097 5.586-18.1 5.97 18.688 18.942-.28-15.929 11.452zM330.882 52.796l-15.815-11.61-15.16 11.36 6.156-18.628-15.489-10.907 19.619.097 5.587-18.1 5.97 18.688 18.941-.28-15.929 11.452zM330.882 360.796l-15.815-11.61-15.16 11.36 6.156-18.628-15.489-10.907 19.619.097 5.587-18.1 5.97 18.688 18.941-.28-15.929 11.452zM330.882 198.796l-15.815-11.61-15.16 11.36 6.156-18.628-15.489-10.907 19.619.097 5.587-18.1 5.97 18.688 18.941-.28-15.929 11.452zM330.882 124.796l-15.815-11.61-15.16 11.36 6.156-18.628-15.489-10.907 19.619.097 5.587-18.1 5.97 18.688 18.941-.28-15.929 11.452zM330.882 276.796l-15.815-11.61-15.16 11.36 6.156-18.628-15.489-10.907 19.619.097 5.587-18.1 5.97 18.688 18.941-.28-15.929 11.452zM430.882 52.796l-15.815-11.61-15.16 11.36 6.156-18.628-15.489-10.907 19.619.097 5.587-18.1 5.97 18.688 18.941-.28-15.929 11.452zM430.882 360.796l-15.815-11.61-15.16 11.36 6.156-18.628-15.489-10.907 19.619.097 5.587-18.1 5.97 18.688 18.941-.28-15.929 11.452zM430.882 198.796l-15.815-11.61-15.16 11.36 6.156-18.628-15.489-10.907 19.619.097 5.587-18.1 5.97 18.688 18.941-.28-15.929 11.452zM430.882 124.796l-15.815-11.61-15.16 11.36 6.156-18.628-15.489-10.907 19.619.097 5.587-18.1 5.97 18.688 18.941-.28-15.929 11.452zM430.882 276.796l-15.815-11.61-15.16 11.36 6.156-18.628-15.489-10.907 19.619.097 5.587-18.1 5.97 18.688 18.941-.28-15.929 11.452zM138.882 52.796l-15.815-11.61-15.16 11.36 6.156-18.628-15.489-10.907 19.619.097 5.587-18.1 5.97 18.688 18.941-.28-15.929 11.452zM138.882 360.796l-15.815-11.61-15.16 11.36 6.156-18.628-15.489-10.907 19.619.097 5.587-18.1 5.97 18.688 18.941-.28-15.929 11.452zM138.882 198.796l-15.815-11.61-15.16 11.36 6.156-18.628-15.489-10.907 19.619.097 5.587-18.1 5.97 18.688 18.941-.28-15.929 11.452zM138.882 124.796l-15.815-11.61-15.16 11.36 6.156-18.628-15.489-10.907 19.619.097 5.587-18.1 5.97 18.688 18.941-.28-15.929 11.452zM138.882 276.796l-15.815-11.61-15.16 11.36 6.156-18.628-15.489-10.907 19.619.097 5.587-18.1 5.97 18.688 18.941-.28-15.929 11.452zM90.882 94.796l-15.815-11.61-15.16 11.36 6.156-18.628-15.489-10.907 19.619.097 5.587-18.1 5.97 18.688 18.941-.28-15.929 11.452zM90.882 240.796l-15.815-11.61-15.16 11.36 6.156-18.628-15.489-10.907 19.619.097 5.587-18.1 5.97 18.688 18.941-.28-15.929 11.452zM90.882 166.796l-15.815-11.61-15.16 11.36 6.156-18.628-15.489-10.907 19.619.097 5.587-18.1 5.97 18.688 18.941-.28-15.929 11.452zM90.882 318.796l-15.815-11.61-15.16 11.36 6.156-18.628-15.489-10.907 19.619.097 5.587-18.1 5.97 18.688 18.941-.28-15.929 11.452zM280.882 94.796l-15.815-11.61-15.16 11.36 6.156-18.628-15.489-10.907 19.619.097 5.587-18.1 5.97 18.688 18.941-.28-15.929 11.452zM280.882 240.796l-15.815-11.61-15.16 11.36 6.156-18.628-15.489-10.907 19.619.097 5.587-18.1 5.97 18.688 18.941-.28-15.929 11.452zM280.882 166.796l-15.815-11.61-15.16 11.36 6.156-18.628-15.489-10.907 19.619.097 5.587-18.1 5.97 18.688 18.941-.28-15.929 11.452zM280.882 318.796l-15.815-11.61-15.16 11.36 6.156-18.628-15.489-10.907 19.619.097 5.587-18.1 5.97 18.688 18.941-.28-15.929 11.452zM378.882 94.796l-15.815-11.61-15.16 11.36 6.156-18.628-15.489-10.907 19.619.097 5.587-18.1 5.97 18.688 18.941-.28-15.929 11.452zM378.882 240.796l-15.815-11.61-15.16 11.36 6.156-18.628-15.489-10.907 19.619.097 5.587-18.1 5.97 18.688 18.941-.28-15.929 11.452zM378.882 166.796l-15.815-11.61-15.16 11.36 6.156-18.628-15.489-10.907 19.619.097 5.587-18.1 5.97 18.688 18.941-.28-15.929 11.452zM378.882 318.796l-15.815-11.61-15.16 11.36 6.156-18.628-15.489-10.907 19.619.097 5.587-18.1 5.97 18.688 18.941-.28-15.929 11.452z"
        fill="#fff" />
    <path
        d="M478.882 94.796l-15.815-11.61-15.16 11.36 6.156-18.628-15.489-10.907 19.619.097 5.587-18.1 5.97 18.688 18.941-.28-15.929 11.452zM478.882 240.796l-15.815-11.61-15.16 11.36 6.156-18.628-15.489-10.907 19.619.097 5.587-18.1 5.97 18.688 18.941-.28-15.929 11.452zM478.882 166.796l-15.815-11.61-15.16 11.36 6.156-18.628-15.489-10.907 19.619.097 5.587-18.1 5.97 18.688 18.941-.28-15.929 11.452zM478.882 318.796l-15.815-11.61-15.16 11.36 6.156-18.628-15.489-10.907 19.619.097 5.587-18.1 5.97 18.688 18.941-.28-15.929 11.452zM186.882 94.796l-15.815-11.61-15.16 11.36 6.156-18.628-15.489-10.907 19.619.097 5.586-18.1 5.97 18.688 18.942-.28-15.929 11.452zM186.882 240.796l-15.815-11.61-15.16 11.36 6.156-18.628-15.489-10.907 19.619.097 5.586-18.1 5.97 18.688 18.942-.28-15.929 11.452zM186.882 166.796l-15.815-11.61-15.16 11.36 6.156-18.628-15.489-10.907 19.619.097 5.586-18.1 5.97 18.688 18.942-.28-15.929 11.452zM186.882 318.796l-15.815-11.61-15.16 11.36 6.156-18.628-15.489-10.907 19.619.097 5.586-18.1 5.97 18.688 18.942-.28-15.929 11.452z"
        fill="#fff" />
</svg>